<svg xmlns="http://www.w3.org/2000/svg" width="122.372" height="122.838" viewBox="0 0 122.372 122.838">
  <g id="ecology" transform="translate(-0.97 0.001)">
    <g id="Group_90" data-name="Group 90" transform="translate(4.754 3.74)">
      <path id="Path_302" data-name="Path 302" d="M57.353,245.066c-7.075,6.416-17.72,8.544-23.557,12.014a53.551,53.551,0,0,1-17.055-37.186c3.507-1.309,6.91-2.92,8.828-4.741,5.111-4.861,9.1-6.48,12.59,0s5.108,12.216,11.218,13.211S66.7,236.589,57.353,245.066Z" transform="translate(-16.742 -164.026)" fill="#4a9331"/>
      <path id="Path_303" data-name="Path 303" d="M146.55,65.669c-.8,6.793-.343,13.576,5.657,18.552.086.072.165.148.244.224a35.864,35.864,0,0,1,2.961-3.361c5.789-5.789,13.254-9.162,20.62-11.092-3.643-4.307-7.469-20.514-20.325-13.977-2.691,1.368-3.665-18.116-3.086-18.857,5.539-7.2,10.163-10.344,18.633-13.249a2.688,2.688,0,0,0,.6-.336,53.727,53.727,0,0,0-58.776,1.585,3.189,3.189,0,0,0,.2.623c3.665,7.9,8.389,21.313,16.443,24.4C133.628,51.679,147.714,55.811,146.55,65.669Z" transform="translate(-89.965 -15.59)" fill="#4a9331"/>
    </g>
    <g id="Group_91" data-name="Group 91" transform="translate(0.97 -0.001)">
      <path id="Path_304" data-name="Path 304" d="M70.691,74.268q.443-.542.91-1.068c.068-.077.138-.151.206-.227.338-.372.681-.739,1.038-1.1q.4-.4.829-.8c.086-.08.174-.157.261-.236.2-.181.4-.362.607-.539.1-.088.2-.174.307-.261q.3-.253.609-.5c.1-.082.2-.163.305-.243q.349-.273.708-.538c.076-.056.15-.114.226-.169q.473-.345.963-.677c.067-.046.135-.089.2-.134q.388-.259.785-.511c.118-.075.237-.148.356-.221q.333-.205.673-.4c.129-.076.258-.152.388-.226.25-.143.5-.283.759-.422q.251-.136.5-.269.384-.2.775-.4c.182-.09.364-.179.547-.267s.339-.162.51-.242c.206-.1.413-.192.621-.285.12-.054.243-.106.364-.159q.712-.31,1.433-.6l.173-.069q.436-.171.874-.333l.088-.032c15.129-5.571,32.152-3.511,32.412-3.478a3.739,3.739,0,0,0,.961-7.416c-.284-.037-1.882-.234-4.4-.369A57.359,57.359,0,0,0,88.607,8.538l-.022-.013-.105-.063c-.212-.132-.428-.261-.653-.4l-.146-.088-.034-.02c-.231-.135-.463-.27-.706-.41-.279-.16-.559-.315-.844-.472-.247-.136-.494-.268-.742-.4-.049-.028-.1-.055-.149-.081L85,6.487c-.2-.106-.408-.21-.613-.313-.841-.432-1.733-.855-2.632-1.25-.3-.132-.591-.26-.89-.387l-.008,0-.028-.012a56.562,56.562,0,0,0-5.494-2c-.31-.1-.624-.187-.934-.277-.541-.158-1.071-.3-1.573-.43-.147-.039-.3-.076-.452-.114-.285-.071-.569-.138-.848-.2-.33-.078-.665-.153-.986-.22l-.068-.015c-.264-.057-.526-.113-.791-.162L69.167,1c-.344-.066-.693-.127-1.01-.179-.55-.1-1.1-.179-1.651-.26L66.463.552,66.369.54c-.263-.035-.523-.07-.782-.1-.35-.043-.7-.082-1.05-.121L64.488.313l-.6-.058C63.193.19,62.554.141,61.97.106c-.193-.013-.386-.023-.6-.032-.228-.011-.456-.022-.687-.03l-.1,0L60.3.031c-.119,0-.239-.01-.358-.012h-.061c-.2-.007-.409-.011-.591-.011-.229,0-.459,0-.69-.006l-.146,0-.1,0c-.335,0-.666,0-.98.011-.206,0-.408.013-.613.019-.256.007-.513.013-.768.024l-.1,0c-.277.009-.555.025-.834.041-.3.018-.6.039-.9.06l-.14.01-.039,0-.059,0c-.314.023-.624.052-.938.082-.082.006-.164.014-.245.023-.235.022-.47.048-.7.074l-.252.028L51.66.4c-.654.075-1.258.156-1.842.246l-.182.028h.008L49.47.7c-.5.078-.989.164-1.483.255l-.169.032c-.172.032-.344.066-.516.1-.292.058-.586.117-.9.184l-.3.065-.253.058q-.381.085-.761.176c-.129.031-.259.058-.388.09l-.053.013q-.579.143-1.154.3c-.133.036-.266.075-.4.112q-.747.207-1.488.434c-.178.055-.356.109-.533.165q-.72.229-1.432.478c-.2.071-.409.141-.612.214q-.7.253-1.395.525-.374.145-.745.3-.644.262-1.281.539c-.273.119-.544.24-.815.363q-.552.251-1.1.513-.467.224-.93.457-.443.222-.881.452-.528.276-1.051.564-.472.259-.938.527-.427.245-.85.5-.573.342-1.137.7c-.164.1-.328.2-.491.309-.488.314-.97.637-1.449.965-.076.052-.155.1-.23.154-.026.018-.05.039-.076.057A57.772,57.772,0,0,0,13.4,21.775,56.877,56.877,0,0,0,.97,57.483c0,.725.014,1.465.043,2.261,0,.063.006.125.011.187.01.238.025.476.039.714.011.2.019.4.033.606.017.267.039.534.06.8.016.2.03.41.048.615.024.263.052.525.078.787.021.208.04.416.064.623.029.256.063.51.1.765.027.212.052.425.081.637.034.248.073.5.111.743.033.216.064.433.1.649.04.244.084.487.127.731.039.218.075.436.116.652.045.238.094.475.142.712.044.221.087.443.134.663s.1.461.156.691.1.449.153.673.113.452.171.678.111.451.171.675.123.444.185.666.124.452.19.677.132.435.2.653.136.453.208.678.141.428.212.642.148.453.226.678.15.419.225.629c.081.226.161.454.244.679.077.206.159.411.238.616.088.226.173.453.263.678.082.2.168.406.253.609.093.224.184.449.28.671.087.2.178.4.267.6.1.222.2.445.3.666.09.2.185.39.277.586.106.223.209.446.317.668.1.194.195.386.292.58.111.22.219.44.333.658.1.194.207.387.31.58.115.215.228.43.345.643.107.194.218.386.328.578.119.21.236.421.358.629s.231.386.347.578.244.41.369.614.242.382.363.573.253.4.383.6.248.372.373.558.266.4.4.6c.126.183.256.363.384.545.14.2.278.4.421.6.132.182.268.361.4.542s.286.39.432.582.275.352.412.528c.15.193.3.387.451.578.137.171.277.338.416.507.159.193.315.388.476.58.138.163.279.324.419.486.167.194.332.389.5.582.13.147.264.292.4.438.184.2.366.409.553.611.109.117.222.232.332.349.214.227.427.455.645.679.053.054.107.107.16.161q.914.932,1.874,1.83l0,0a57.408,57.408,0,0,0,33.791,15.176c.134,2.522.332,4.123.369,4.407a3.74,3.74,0,0,0,3.226,3.226,77.113,77.113,0,0,0,9.238.5c11.389,0,30.728-2.072,43.288-14.631,6.638-6.638,11.087-15.9,13.223-27.53a3.739,3.739,0,1,0-7.355-1.351c-1.858,10.11-5.611,18.048-11.157,23.593-12.806,12.806-35.255,12.74-43.3,12.257-.462-7.505-.562-27.525,9.863-40.6C70.528,74.47,70.609,74.368,70.691,74.268ZM67.1,67.057c-2.138-3.017-2.732-6.976-2.045-12.8,1.413-11.965-12.74-17.079-18.068-19-.438-.158-.821-.3-1.138-.418-5.41-2.072-9.6-11.631-12.661-18.61q-.335-.764-.657-1.495A49.627,49.627,0,0,1,44.891,9.344l.141-.04q.741-.207,1.489-.39c.159-.039.317-.073.476-.11.351-.082.7-.163,1.055-.238.2-.043.409-.083.614-.124q.477-.095.956-.181c.209-.037.419-.073.629-.108q1.43-.236,2.876-.392c.1-.011.208-.023.313-.033q.708-.071,1.421-.121l.347-.023q.637-.041,1.277-.065c.12,0,.238-.011.359-.014q.756-.024,1.516-.026h.3q.415,0,.829.011c.055,0,.111,0,.166,0s.1,0,.156,0h0c.323.009.645.021.968.036l.234.01h.011q.56.028,1.119.07l.1.007a49.93,49.93,0,0,1,15.626,3.77c-5.332,2.694-9.181,6.126-13.4,11.61-.7.9-1.37,1.752-.681,10.473.441,5.583,1.172,9.453,2.172,11.5a4.676,4.676,0,0,0,4.273,2.991h0a4.292,4.292,0,0,0,1.961-.475,8.957,8.957,0,0,1,3.949-1.127c3.638,0,6.133,4.168,8.791,9.2l.2.377A45.981,45.981,0,0,0,67.559,66.59l-.013.013Q67.319,66.827,67.1,67.057ZM108.152,52A84.2,84.2,0,0,0,92.5,53.867c-.311-.562-.637-1.176-.958-1.786-2.772-5.253-6.961-13.191-15.4-13.191a14.323,14.323,0,0,0-4.085.624,76.94,76.94,0,0,1-1.074-12.705c4.483-5.651,8.286-8.353,15.3-10.873A49.877,49.877,0,0,1,108.152,52ZM22.487,92.221q-.38-.392-.751-.791l-.046-.05q-.371-.4-.732-.809c-.081-.091-.16-.184-.24-.276q-.261-.3-.517-.6c-.093-.11-.184-.22-.276-.33q-.234-.281-.464-.565-.14-.174-.278-.348-.224-.283-.444-.57c-.089-.116-.178-.231-.266-.347q-.228-.3-.449-.606c-.078-.107-.157-.213-.234-.321-.177-.245-.35-.492-.521-.74-.046-.066-.093-.131-.138-.2q-.324-.472-.636-.951c-.054-.083-.106-.167-.16-.25-.152-.237-.3-.474-.452-.713-.074-.119-.145-.238-.218-.358-.125-.206-.25-.412-.372-.62-.077-.131-.153-.264-.23-.4q-.172-.3-.339-.6c-.076-.136-.151-.272-.226-.408q-.166-.3-.327-.611c-.07-.133-.14-.265-.209-.4-.114-.221-.226-.444-.336-.667-.058-.117-.117-.233-.174-.35q-.234-.481-.458-.968l-.055-.119q-.22-.482-.43-.968c-.053-.123-.1-.246-.155-.37-.1-.226-.19-.451-.281-.678-.058-.143-.114-.287-.171-.43-.083-.21-.165-.421-.244-.632q-.085-.225-.167-.45-.115-.313-.225-.628c-.053-.15-.106-.3-.157-.452-.074-.218-.145-.436-.216-.654-.046-.143-.094-.286-.139-.429-.078-.25-.154-.5-.229-.753-.033-.112-.068-.224-.1-.336q-.157-.54-.3-1.084c-.027-.1-.053-.208-.079-.312-.068-.264-.136-.529-.2-.795-.035-.144-.067-.289-.1-.433-.053-.228-.1-.456-.155-.685-.034-.155-.066-.311-.1-.467q-.068-.331-.132-.663-.045-.238-.089-.476-.061-.336-.117-.673c-.026-.155-.052-.309-.077-.464-.038-.241-.073-.482-.108-.724-.02-.139-.041-.277-.06-.416q-.064-.478-.119-.959c-.007-.062-.016-.124-.023-.186-.04-.356-.074-.713-.107-1.071a25.39,25.39,0,0,0,7.5-4.5c3.166-3.011,4.443-3.245,4.76-3.245.288,0,1.049.615,1.961,2.307.6,1.111,1.148,2.218,1.68,3.289,2.617,5.268,5.323,10.715,12.227,11.839,3.154.516,7.565,3.176,8.312,5.706.387,1.309-.369,2.835-2.245,4.537-4.005,3.633-9.621,5.843-14.575,7.794C26.237,90.607,24.272,91.381,22.487,92.221Zm30.479,14.961a49.923,49.923,0,0,1-24.255-9.5c.748-.3,1.52-.608,2.306-.917,5.551-2.185,11.843-4.662,16.86-9.213,5.212-4.727,5.266-9.241,4.394-12.2-1.849-6.257-9.462-10.181-14.28-10.968-2.985-.486-4.291-2.87-6.733-7.785-.559-1.125-1.137-2.289-1.794-3.509-2.231-4.14-5.107-6.24-8.545-6.24-3.821,0-7.155,2.681-9.911,5.3a11.961,11.961,0,0,1-2.425,1.662A49.9,49.9,0,0,1,26.3,19.137l.04.092c3.79,8.643,8.507,19.4,16.832,22.589.353.135.783.291,1.275.469C50.915,44.625,58.261,48,57.626,53.38c-.716,6.062-.738,13.569,4.7,19.663C55.1,84.028,53.241,97.61,52.966,107.182Z" transform="translate(-0.97 0.001)" fill="#3e3e3e"/>
      <path id="Path_305" data-name="Path 305" d="M223.21,389.271a3.739,3.739,0,0,1-2.644-6.384l30.65-30.65a3.739,3.739,0,1,1,5.288,5.288l-30.65,30.65A3.728,3.728,0,0,1,223.21,389.271Z" transform="translate(-167.049 -266.898)" fill="#3e3e3e"/>
    </g>
  </g>
</svg>
