<svg id="Group_72" data-name="Group 72" xmlns="http://www.w3.org/2000/svg" width="167.804" height="133.47" viewBox="0 0 167.804 133.47">
  <rect id="Rectangle_39" data-name="Rectangle 39" width="28.263" height="0.338" transform="translate(139.54 114.945)" fill="#3f3d56"/>
  <rect id="Rectangle_40" data-name="Rectangle 40" width="47.183" height="0.338" transform="translate(77.514 114.945)" fill="#3f3d56"/>
  <rect id="Rectangle_41" data-name="Rectangle 41" width="66.773" height="0.338" transform="translate(0 114.945)" fill="#3f3d56"/>
  <path id="Path_200" data-name="Path 200" d="M868.806,631.293H848.954s-.4-5.9,1.979-5.969,2.113,2.616,5.1-1.073,6.606-3.488,7.076-1.308-.905,3.923,1.61,3.387S870.852,627.2,868.806,631.293Z" transform="translate(-705.326 -516.266)" fill="#439133"/>
  <path id="Path_201" data-name="Path 201" d="M905.45,631.124l-.067,0a20.441,20.441,0,0,1,1.625-7.793,7.075,7.075,0,0,1,1.4-2.157l.045.05a7.029,7.029,0,0,0-1.39,2.141A20.383,20.383,0,0,0,905.45,631.124Z" transform="translate(-752.231 -516.096)" fill="#f2f2f2"/>
  <path id="Path_202" data-name="Path 202" d="M947.94,658.559l-.065-.019a10.406,10.406,0,0,1,2.619-4.358l.045.05A10.331,10.331,0,0,0,947.94,658.559Z" transform="translate(-787.535 -543.523)" fill="#f2f2f2"/>
  <path id="Path_203" data-name="Path 203" d="M858.918,651.341l-.066-.009a7.3,7.3,0,0,0-.657-4.27,5.883,5.883,0,0,0-1.037-1.513l.046-.048a5.947,5.947,0,0,1,1.051,1.532A7.372,7.372,0,0,1,858.918,651.341Z" transform="translate(-712.164 -536.31)" fill="#f2f2f2"/>
  <path id="Path_204" data-name="Path 204" d="M218.806,631.293H198.954s-.4-5.9,1.978-5.969,2.113,2.616,5.1-1.073,6.606-3.488,7.076-1.308-.906,3.923,1.61,3.387S220.852,627.2,218.806,631.293Z" transform="translate(-165.278 -516.266)" fill="#3f3d56"/>
  <path id="Path_205" data-name="Path 205" d="M255.451,631.124l-.067,0a20.437,20.437,0,0,1,1.625-7.793,7.075,7.075,0,0,1,1.4-2.157l.045.05a7.028,7.028,0,0,0-1.39,2.141A20.382,20.382,0,0,0,255.451,631.124Z" transform="translate(-212.184 -516.096)" fill="#f2f2f2"/>
  <path id="Path_206" data-name="Path 206" d="M297.939,658.559l-.064-.019a10.406,10.406,0,0,1,2.619-4.358l.045.05A10.331,10.331,0,0,0,297.939,658.559Z" transform="translate(-247.487 -543.523)" fill="#f2f2f2"/>
  <path id="Path_207" data-name="Path 207" d="M208.918,651.341l-.066-.009a7.3,7.3,0,0,0-.657-4.27,5.881,5.881,0,0,0-1.037-1.513l.046-.048a5.947,5.947,0,0,1,1.051,1.532A7.372,7.372,0,0,1,208.918,651.341Z" transform="translate(-172.116 -536.31)" fill="#f2f2f2"/>
  <rect id="Rectangle_42" data-name="Rectangle 42" width="97.101" height="0.338" transform="translate(42.529 114.771) rotate(-89.385)" fill="#3f3d56"/>
  <path id="Path_208" data-name="Path 208" d="M254.469,255.338c-.159-9.559,2.736-17.477,8.606-23.533,6.263-6.462,14.835-9.6,20.923-11.094A59.213,59.213,0,0,1,295.826,219l.005.338a58.878,58.878,0,0,0-11.76,1.7c-6.043,1.484-14.548,4.6-20.754,11-5.8,5.989-8.667,13.825-8.509,23.29Z" transform="translate(-211.419 -181.955)" fill="#3f3d56"/>
  <path id="Path_209" data-name="Path 209" d="M73.722,17.931A122.256,122.256,0,0,1,47.13,15.35C39.953,13.669,36,11.4,36,8.965s3.953-4.7,11.13-6.384A122.256,122.256,0,0,1,73.722,0a122.256,122.256,0,0,1,26.592,2.581c7.177,1.681,11.13,3.948,11.13,6.384s-3.953,4.7-11.13,6.384A122.256,122.256,0,0,1,73.722,17.931Zm0-17.592A121.915,121.915,0,0,0,47.207,2.91C40.3,4.528,36.338,6.735,36.338,8.965S40.3,13.4,47.207,15.02a121.915,121.915,0,0,0,26.515,2.572,121.915,121.915,0,0,0,26.515-2.572c6.907-1.618,10.868-3.825,10.868-6.055s-3.961-4.437-10.868-6.055A121.915,121.915,0,0,0,73.722.338Z" transform="translate(-29.91)" fill="#3f3d56"/>
  <path id="Path_210" data-name="Path 210" d="M507.642,182.284a9.642,9.642,0,1,1,9.642-9.642h0A9.653,9.653,0,0,1,507.642,182.284Zm0-18.946a9.3,9.3,0,1,0,9.3,9.3A9.3,9.3,0,0,0,507.642,163.338Z" transform="translate(-413.76 -135.427)" fill="#3f3d56"/>
  <ellipse id="Ellipse_12" data-name="Ellipse 12" cx="1.5" cy="2" rx="1.5" ry="2" transform="translate(7.902 111.22)" fill="#3f3d56"/>
  <path id="Path_211" data-name="Path 211" d="M160.788,266.087a17,17,0,0,1,2.2,4.112c.127.33.24.66.345.991l0,0a27.63,27.63,0,0,1,.945,11.058c-.029.241-.051.37-.051.37l-.369-.062a28.535,28.535,0,0,1-8.452-3.045c-.235-.134-.471-.271-.7-.416a18.206,18.206,0,0,1-5.218-4.653l-.02-.027c-.148-.2-.292-.406-.428-.613a18.706,18.706,0,0,1-2.531-5.968c-.064-.263-.123-.523-.177-.785a28.548,28.548,0,0,1-.358-8.8c.029-.241.051-.37.051-.37s.129.018.369.062a28.54,28.54,0,0,1,8.229,2.921c.228.126.456.255.685.391a19.46,19.46,0,0,1,4.234,3.338c.217.229.428.467.631.712S160.591,265.818,160.788,266.087Z" transform="translate(-121.128 -214.262)" fill="#439133"/>
  <path id="Path_212" data-name="Path 212" d="M160.426,268.526a12.8,12.8,0,0,0,.66-3.217c-.2-.245-.414-.484-.631-.712a.33.33,0,0,0-.111.24,9.972,9.972,0,0,1-1.871,5.647,5.668,5.668,0,0,1-1.145,1.079l-4.412-6c.124-.078.246-.162.366-.25a8.155,8.155,0,0,0,2.94-4.058c-.229-.135-.457-.265-.685-.391a7.4,7.4,0,0,1-2.985,4.006l-.1.063-5.145-6.991c-.239-.044-.369-.062-.369-.062s-.021.129-.051.37L152,265.2a9.007,9.007,0,0,1-2.133.768,8.188,8.188,0,0,0-2.622,1.083c.053.261.113.522.177.785a.387.387,0,0,0,.142-.062,6.3,6.3,0,0,1,1.448-.759c.483-.174.984-.275,1.478-.4a8.088,8.088,0,0,0,1.976-.779l4.423,6.01a5.177,5.177,0,0,1-.7.337,9.817,9.817,0,0,1-3.021.423,6.282,6.282,0,0,0-3.217,1.2c.136.207.28.411.428.613l.02.027,0,0a5.576,5.576,0,0,1,3.021-1.073,9.161,9.161,0,0,0,3.1-.479,6.2,6.2,0,0,0,.831-.417l2.487,3.379c-1.3,1.128-2.747,2.125-4.118,3.134a.369.369,0,0,0-.1.111c.233.145.469.282.7.416,1.326-.973,2.716-1.947,3.978-3.034l4.474,6.079.369.062s.021-.129.051-.37l-4.5-6.117a12.384,12.384,0,0,0,3.557-4.941l0,0c-.1-.33-.218-.66-.345-.991a.31.31,0,0,0-.221.227,11.433,11.433,0,0,1-3.453,5.078l-2.441-3.316A7.672,7.672,0,0,0,160.426,268.526Z" transform="translate(-122.041 -214.262)" fill="#f2f2f2"/>
  <path id="Path_213" data-name="Path 213" d="M412.355,240.9a7.889,7.889,0,0,1,1.021,1.907c.059.153.111.306.16.459h0a12.81,12.81,0,0,1,.438,5.127c-.014.112-.024.172-.024.172l-.171-.029a13.233,13.233,0,0,1-3.919-1.412c-.109-.062-.218-.126-.326-.193a8.441,8.441,0,0,1-2.419-2.157l-.009-.013c-.069-.093-.135-.188-.2-.284a8.668,8.668,0,0,1-1.173-2.767c-.03-.122-.057-.243-.082-.364a13.24,13.24,0,0,1-.166-4.08c.014-.112.023-.172.023-.172s.06.008.171.028a13.237,13.237,0,0,1,3.816,1.355c.106.058.212.118.318.181a9.014,9.014,0,0,1,1.963,1.548c.1.106.2.217.292.33S412.264,240.778,412.355,240.9Z" transform="translate(-336.824 -196.993)" fill="#3f3d56"/>
  <path id="Path_214" data-name="Path 214" d="M412.187,242.033a5.927,5.927,0,0,0,.306-1.491c-.094-.114-.192-.224-.292-.33a.153.153,0,0,0-.051.111,4.623,4.623,0,0,1-.868,2.618,2.627,2.627,0,0,1-.531.5l-2.046-2.78c.057-.036.114-.075.169-.116a3.782,3.782,0,0,0,1.363-1.882c-.106-.063-.212-.123-.318-.181a3.431,3.431,0,0,1-1.384,1.858l-.046.029-2.386-3.242c-.111-.02-.171-.028-.171-.028s-.01.06-.024.172l2.371,3.221a4.18,4.18,0,0,1-.989.356,3.8,3.8,0,0,0-1.216.5c.025.121.052.242.082.364a.181.181,0,0,0,.066-.029,2.92,2.92,0,0,1,.672-.352c.224-.081.456-.127.685-.187a3.751,3.751,0,0,0,.916-.361l2.051,2.787a2.411,2.411,0,0,1-.324.156,4.554,4.554,0,0,1-1.4.2,2.912,2.912,0,0,0-1.492.557c.063.1.13.191.2.284l.009.013,0,0a2.584,2.584,0,0,1,1.4-.5,4.25,4.25,0,0,0,1.436-.222,2.874,2.874,0,0,0,.385-.194l1.153,1.567c-.6.523-1.274.985-1.909,1.453a.166.166,0,0,0-.048.051c.108.067.218.131.326.193.615-.451,1.259-.9,1.844-1.407l2.074,2.819.171.029s.01-.06.023-.172l-2.087-2.836a5.742,5.742,0,0,0,1.649-2.291h0c-.048-.153-.1-.306-.16-.459a.144.144,0,0,0-.1.105,5.3,5.3,0,0,1-1.6,2.355l-1.132-1.538A3.557,3.557,0,0,0,412.187,242.033Z" transform="translate(-337.247 -196.993)" fill="#f2f2f2"/>
  <path id="Path_215" data-name="Path 215" d="M723.751,237.8a7.907,7.907,0,0,1,6.062-3.6s3.924-.5,6.441,4.736c2.346,4.882,5.584,9.6.521,10.739l-.914-2.846-.566,3.058a19.858,19.858,0,0,1-2.166.037c-5.422-.175-10.586.051-10.419-1.895C722.93,245.445,721.793,241.111,723.751,237.8Z" transform="translate(-600.349 -194.575)" fill="#2f2e41"/>
  <path id="Path_216" data-name="Path 216" d="M680.221,359.364l-.59,9.339,3.834,12.779,2.064-3.146-2.458-9.732,1.573-7.569Z" transform="translate(-564.667 -298.575)" fill="#ffb9b9"/>
  <path id="Path_217" data-name="Path 217" d="M791.638,395.788v5.407l3.342,7.864h-2.556l-3.539-6.685v-6.98Z" transform="translate(-655.44 -328.511)" fill="#ffb9b9"/>
  <path id="Path_218" data-name="Path 218" d="M691.181,662.138l-1.671,4.129,2.851,1.278,1.573-3.342Z" transform="translate(-572.875 -550.133)" fill="#ffb9b9"/>
  <path id="Path_219" data-name="Path 219" d="M766.613,694.494l-.393,7.373,3.637-1.278.491-6.488Z" transform="translate(-636.609 -576.689)" fill="#ffb9b9"/>
  <path id="Path_220" data-name="Path 220" d="M715.361,425.283l-3.785,37.7-6.685.3-.393-25.559-1.671,10.814-6.193,11.895L693,457.183l1.573-28.41a10.065,10.065,0,0,1,1.769-7.471l.338-3.669.065-.693.187-2.028,12.042-.049.8,1.327.4.667,1.5,2.479Z" transform="translate(-575.772 -344.686)" fill="#2f2e41"/>
  <path id="Path_221" data-name="Path 221" d="M677.041,674.941l-.393-1.18-2.458,3.932s-2.359,6.586.688,6.586,3.932-4.424,3.932-4.424l1.081-3.834S677.336,675.727,677.041,674.941Z" transform="translate(-559.423 -559.79)" fill="#2f2e41"/>
  <path id="Path_222" data-name="Path 222" d="M755.689,729.472s3.539-.786,3.637-.295.786,3.441.786,3.441,6.39,6.095,2.064,6.39-6.291-1.376-6.488-2.261a2.829,2.829,0,0,0-1.376-2.064c-.786-.393-1.769-1.671-1.18-2.654s2.165-3.164,2.165-3.164Z" transform="translate(-625.586 -605.572)" fill="#2f2e41"/>
  <circle id="Ellipse_13" data-name="Ellipse 13" cx="4.817" cy="4.817" r="4.817" transform="translate(125.09 42.701)" fill="#ffb9b9"/>
  <path id="Path_223" data-name="Path 223" d="M735.421,290.209s-1.376,5.21-2.752,5.9,4.62,4.129,4.62,4.129l3.441-1.081s-3.539-2.654-.492-6.586Z" transform="translate(-608.563 -241.118)" fill="#ffb9b9"/>
  <path id="Path_224" data-name="Path 224" d="M712.027,319.381a16.43,16.43,0,0,1-3.6-2.753c-1.31-1.475-6.127,0-6.127,0v12.288l.786,4.129,1.376.983,12.386-.786,3.244-10.617-5.607-3.471A1.74,1.74,0,0,1,712.027,319.381Z" transform="translate(-583.497 -262.524)" fill="#575a89"/>
  <path id="Path_225" data-name="Path 225" d="M679.333,320.044l-1.18-.2-4.915,6.98,6.685,2.556Z" transform="translate(-559.355 -265.743)" fill="#575a89"/>
  <path id="Path_226" data-name="Path 226" d="M786.6,352.972l1.573.393,1.18,7.963-5.112.393Z" transform="translate(-651.577 -293.264)" fill="#575a89"/>
  <path id="Path_227" data-name="Path 227" d="M727.851,422.709l-13.031.75-.065.693,13.5-.777Z" transform="translate(-593.849 -351.205)" fill="#575a89"/>
  <circle id="Ellipse_14" data-name="Ellipse 14" cx="2.912" cy="2.912" r="2.912" transform="translate(126.06 36.734)" fill="#2f2e41"/>
  <path id="Path_228" data-name="Path 228" d="M768.665,215.539a2.912,2.912,0,0,0-2.605-2.9,2.943,2.943,0,0,1,.307-.016,2.912,2.912,0,0,1,0,5.823,2.948,2.948,0,0,1-.307-.016A2.912,2.912,0,0,0,768.665,215.539Z" transform="translate(-636.476 -176.66)" fill="#2f2e41"/>
  <path id="Path_229" data-name="Path 229" d="M733.9,243.349l3.978-2.084,5.494.853,1.137,5.02-2.829-.109-.79-1.844V247l-1.306-.05-.758-2.936-.474,3.126-4.641-.095Z" transform="translate(-609.599 -200.453)" fill="#2f2e41"/>
  <path id="Path_230" data-name="Path 230" d="M909.781,306.721H906.06V303h-.338v3.721H902v.338h3.721v3.721h.338V307.06h3.721Z" transform="translate(-749.42 -251.745)" fill="#439133"/>
  <path id="Path_231" data-name="Path 231" d="M618.781,306.721H615.06V303h-.338v3.721H611v.338h3.721v3.721h.338V307.06h3.721Z" transform="translate(-507.645 -251.745)" fill="#439133"/>
  <path id="Path_232" data-name="Path 232" d="M814.781,165.721H811.06V162h-.338v3.721H807v.338h3.721v3.721h.338V166.06h3.721Z" transform="translate(-670.49 -134.597)" fill="#439133"/>
</svg>
