<svg xmlns="http://www.w3.org/2000/svg" width="147.359" height="138.827" viewBox="0 0 147.359 138.827">
  <g id="Group_76" data-name="Group 76" transform="translate(0 0.355)">
    <path id="Path_233" data-name="Path 233" d="M130.9,610.888c.03,3.089-1.8,4.185-4.06,4.207h-.157q-.158,0-.312-.011c-2.045-.125-3.645-1.243-3.673-4.115-.029-2.973,3.733-6.761,4.016-7.041h0l.016-.016S130.875,607.8,130.9,610.888Z" transform="translate(-101.406 -499.149)" fill="#439133"/>
    <path id="Path_234" data-name="Path 234" d="M503.9,609.888c.03,3.089-1.8,4.185-4.06,4.207h-.157q-.157,0-.312-.011c-2.045-.125-3.645-1.243-3.673-4.115-.029-2.973,3.733-6.761,4.016-7.041h0l.016-.016S503.875,606.8,503.9,609.888Z" transform="translate(-409.665 -498.323)" fill="#439133"/>
    <rect id="Rectangle_43" data-name="Rectangle 43" width="147.359" height="0.347" transform="translate(0 115.55)" fill="#3f3d56"/>
    <circle id="Ellipse_15" data-name="Ellipse 15" cx="28.892" cy="28.892" r="28.892" transform="translate(1.241 -0.355)" fill="#439133"/>
    <path id="Path_235" data-name="Path 235" d="M304.753,518h0a26.035,26.035,0,0,1,26.035,26.035H290V532.753A14.753,14.753,0,0,1,304.753,518Z" transform="translate(-239.665 -428.149)" fill="#3f3d56"/>
    <path id="Path_236" data-name="Path 236" d="M579.17,320.059s1.188,15.44-.475,15.915-7.6,4.038-17.1,3.088c0,0-9.264,4.988-7.839.237s7.839-3.563,7.839-3.563,11.4-2.375,11.877-4.038-1.425-8.551-.713-8.789S579.17,320.059,579.17,320.059Z" transform="translate(-457.516 -264.565)" fill="#a0616a"/>
    <path id="Path_237" data-name="Path 237" d="M618.925,471.764s.926,22.306,2.351,25.632c1.187,2.77,1.88,11.8,2.078,14.743.04.59.06.934.06.934s3.8,0,4.038-.95.95-11.4,0-14.727,1.212-26.345,1.212-26.345Z" transform="translate(-511.499 -389.349)" fill="#2f2e41"/>
    <path id="Path_238" data-name="Path 238" d="M606.286,704.74s-2.375.713-2.85,1.663-8.314,2.613-5.938,3.8,9.5-.95,9.5-.95,3.8-.237,3.563-1.663a14.083,14.083,0,0,0-1.1-3.181Z" transform="translate(-493.421 -582.204)" fill="#2f2e41"/>
    <path id="Path_239" data-name="Path 239" d="M644.605,719.475s-2.375.713-2.85,1.663-8.314,2.613-5.939,3.8,9.5-.95,9.5-.95,3.8-.238,3.563-1.663a14.078,14.078,0,0,0-1.1-3.181Z" transform="translate(-525.089 -594.381)" fill="#2f2e41"/>
    <path id="Path_240" data-name="Path 240" d="M631.1,463.418l3.326,5.7,5.55,19.821s-.562,18.185.151,18.185,4.513,1.188,4.751,0c.2-1,2.861-10.614,1.535-17.011a81.812,81.812,0,0,1-1.66-12.272l-.588-11.1s2.375-4.276-.238-4.988S631.1,463.418,631.1,463.418Z" transform="translate(-521.564 -381.557)" fill="#2f2e41"/>
    <circle id="Ellipse_16" data-name="Ellipse 16" cx="5.701" cy="5.701" r="5.701" transform="translate(106.926 33.878)" fill="#a0616a"/>
    <path id="Path_241" data-name="Path 241" d="M644.788,240.083s.95,7.6.713,8.076,5.7-5.226,5.7-5.226-2.138-3.326-1.663-4.988Z" transform="translate(-532.873 -196.703)" fill="#a0616a"/>
    <path id="Path_242" data-name="Path 242" d="M634.339,266.912s-6.651-4.751-6.889-5.7l-4.988,4.276-.848-1.009s-3.9,3.859-3.9,5.522-.237,6.651.475,8.076-2.138,19.478-2.138,19.478,2.375,2.138,2.613,2.375S628.4,298.5,628.4,298.5s4.751-.475,4.751-1.188-1.425-11.4-.95-14.252S634.339,266.912,634.339,266.912Z" transform="translate(-509.122 -215.931)" fill="#575a89"/>
    <path id="Path_243" data-name="Path 243" d="M607.91,332.377s1.188,15.44-.475,15.915-7.6,4.038-17.1,3.088c0,0-9.264,4.988-7.839.238s7.839-3.563,7.839-3.563,11.4-2.375,11.877-4.038-1.425-8.551-.713-8.789S607.91,332.377,607.91,332.377Z" transform="translate(-481.268 -274.745)" fill="#a0616a"/>
    <path id="Path_244" data-name="Path 244" d="M614.936,190.506a4.013,4.013,0,0,1,2.434-.19,7.256,7.256,0,0,1,2.743,2.127c.84.815,2.018,1.538,3.124,1.155a1.831,1.831,0,0,1,.35-1.353,1.246,1.246,0,0,0,.311-.517c.047-.305-.209-.569-.287-.868-.135-.524.235-1.242-.22-1.536-.12-.078-.272-.1-.389-.177-.46-.321.051-1.121-.253-1.592a.973.973,0,0,0-.346-.288c-2.2-1.286-4.9-1.29-7.451-1.257-.355,0-.85.181-.75.522-.482-.346-1.114.14-1.5.589l-.8.918a7.067,7.067,0,0,0-.972,1.315c-.243.465-.3,1.179.187,1.382-.36-.151-.8,1.98.862,1.629C612.944,192.159,613.888,190.879,614.936,190.506Z" transform="translate(-504.744 -153.774)" fill="#2f2e41"/>
    <path id="Path_245" data-name="Path 245" d="M689.352,294.532l3.8-.475s3.8,7.364,1.663,8.551-7.6,2.138-7.6,1.663S689.352,294.532,689.352,294.532Z" transform="translate(-567.936 -243.076)" fill="#575a89"/>
    <path id="Path_246" data-name="Path 246" d="M399.425,303.018s1.134,3.725.486,4.859,1.134,3.563,4.049,2.429,3.077-2.429,3.077-2.429a13.116,13.116,0,0,1-1.458-5.507Z" transform="translate(-330.098 -249.946)" fill="#ffb9b9"/>
    <path id="Path_247" data-name="Path 247" d="M295.455,515.759s-5.831,2.915-3.239,6.8c1.506,2.26,4.381,6.653,6.524,9.937a33.14,33.14,0,0,1,4.082,8.9l.408,1.41,1.62,1.944,3.4-3.887s-5.021-9.232-5.021-11.014-4.049-7.451-4.049-7.451l4.049-2.591S298.694,514.625,295.455,515.759Z" transform="translate(-240.948 -426.163)" fill="#ffb9b9"/>
    <path id="Path_248" data-name="Path 248" d="M417.822,569.907s.162,4.535.324,6.317c.134,1.47-1.166,5.585-.715,10.164a43.032,43.032,0,0,1-.1,8.9l-.644,5.879,4.859.486,1.62-13.281s.972-9.394.486-12.472l.162-6.479S420.251,568.126,417.822,569.907Z" transform="translate(-344.364 -470.27)" fill="#ffb9b9"/>
    <path id="Path_249" data-name="Path 249" d="M318.541,458.733s-11.338,7.288-11.5,9.556c0,0,6.479-.648,6.641,5.021,0,0,3.887-1.458,4.859-1.781S324.7,467.8,324.7,467.8a5.789,5.789,0,0,1,2.106,4.211c0,2.592-.162,7.127,0,7.451s3.887-4.373,6.965-.324l2.106-11.176s.648-6.8-.648-7.288l-9.07-3.4Z" transform="translate(-253.748 -377.964)" fill="#2f2e41"/>
    <circle id="Ellipse_17" data-name="Ellipse 17" cx="4.859" cy="4.859" r="4.859" transform="translate(66.817 45.379)" fill="#ffb9b9"/>
    <path id="Path_250" data-name="Path 250" d="M366.064,332.57s5.481,1.448,6.223-1.3c0,0,6.735,1.3,7.868,5.674s-2.753,14.9-2.753,15.225,3.239,2.268,1.782,3.239-2.753-.162-2.106,1.134,1.782,1.62.81,1.944-6.8-4.7-11.338-3.4-6.8.324-6.8.324l-2.034-17.575a4.06,4.06,0,0,1,1.444-3.6,8.932,8.932,0,0,1,3.667-1.983c2.592-.486,2.7-.752,2.7-.752Z" transform="translate(-295.603 -273.829)" fill="#d0cde1"/>
    <path id="Path_251" data-name="Path 251" d="M376.1,502.067s1.458,8.26,3.4,7.127-.486-7.127-.486-7.127Z" transform="translate(-310.817 -414.982)" fill="#ffb9b9"/>
    <path id="Path_252" data-name="Path 252" d="M409.318,508.226s-2.526,8-.278,7.892,2.864-6.544,2.864-6.544Z" transform="translate(-337.273 -420.072)" fill="#ffb9b9"/>
    <path id="Path_253" data-name="Path 253" d="M333.354,657.546s-1.134-1.3-1.782.486a18.87,18.87,0,0,1-2.429,4.049s-3.887,4.373-1.134,4.535,6.641-3.887,6.641-3.887l4.535-4.211s-1.5-3.661-2.209-3.693S336.431,659.166,333.354,657.546Z" transform="translate(-270.262 -541.226)" fill="#2f2e41"/>
    <path id="Path_254" data-name="Path 254" d="M403.935,742.965s-1.141.333-1.057-1.048c0,0-4.126,2.182-2.993,3.8s2.43,3.239,2.43,3.239,5.993,3.4,6.479,2.591a4.1,4.1,0,0,0,.162-3.077c-.324-.648-1.944-1.782-1.458-2.753s-.162-3.563-.972-3.563A9.758,9.758,0,0,0,403.935,742.965Z" transform="translate(-330.315 -613.202)" fill="#2f2e41"/>
    <path id="Path_255" data-name="Path 255" d="M383.012,253.09s1.563-3.387,4.559-2.605,4.689,1.954,4.82,3.126a16.732,16.732,0,0,1-.065,2.931s-.326-2.41-2.41-1.889a18.591,18.591,0,0,1-5.341.13l-.521,4.689s-.586-.847-1.237-.326S380.928,254.132,383.012,253.09Z" transform="translate(-315.576 -206.969)" fill="#2f2e41"/>
    <path id="Path_256" data-name="Path 256" d="M420.74,358.613s-3.887,10.528-3.563,11.824,0,1.458-.486,1.782-1.782,3.725-1.782,3.725a8.476,8.476,0,0,1-1.458,2.43c-.648.486-.648,1.782-.648,1.782s-1.62,1.62-1.3,1.944.324.81-.324,1.3-1.3,1.134-.972,1.3,2.591,1.944,3.239,1.782-.324-.81.486-1.134,1.3-.81.972-.972-1.3-.162-.324-.486,4.373-2.429,5.507-5.021,6.566-18.27,3.283-20.473A1.5,1.5,0,0,0,420.74,358.613Z" transform="translate(-338.942 -295.661)" fill="#d0cde1"/>
    <path id="Path_257" data-name="Path 257" d="M353.343,352.761l-.066.027a4.079,4.079,0,0,0-2.423,2.933,20.818,20.818,0,0,0-.426,6.434c.486,4.049.81,5.831,1.458,7.127s.81.81.648,1.782-.972.162-.162,1.458,1.3.972.972,1.62-.81.648-.162,1.458a4.518,4.518,0,0,1,.81,1.458c.162.324.648,2.753.648,2.753a10.55,10.55,0,0,1,4.049-.486s-1.3-2.268-.972-2.753.81-.648.324-1.134-1.3-.324-.486-.81-.648-5.507-.648-5.507Z" transform="translate(-289.523 -291.591)" fill="#d0cde1"/>
    <path id="Path_258" data-name="Path 258" d="M160.9,232.123H155L157.69,141Z" transform="translate(-128.097 -116.585)" fill="#3f3d56"/>
    <path id="Path_259" data-name="Path 259" d="M169.781,198.765,176.116,190l-6.422,10.935L169,199.72Z" transform="translate(-139.667 -157.08)" fill="#3f3d56"/>
    <path id="Path_260" data-name="Path 260" d="M139.335,249.765,133,241l6.422,10.935.694-1.215Z" transform="translate(-109.915 -199.228)" fill="#3f3d56"/>
    <rect id="Rectangle_44" data-name="Rectangle 44" width="3.298" height="1.736" transform="translate(29.814 69.79) rotate(-30)" fill="#3f3d56"/>
  </g>
</svg>
