<svg id="Group_79" data-name="Group 79" xmlns="http://www.w3.org/2000/svg" xmlns:xlink="http://www.w3.org/1999/xlink" width="162.653" height="114" viewBox="0 0 162.653 114">
  <defs>
    <linearGradient id="linear-gradient" x1="-3.632" y1="19.049" x2="-3.632" y2="20.049" gradientUnits="objectBoundingBox">
      <stop offset="0" stop-color="gray" stop-opacity="0.251"/>
      <stop offset="0.535" stop-color="gray" stop-opacity="0.122"/>
      <stop offset="1" stop-color="gray" stop-opacity="0.102"/>
    </linearGradient>
  </defs>
  <path id="Path_261" data-name="Path 261" d="M97.914,117.3H0V4L97.914,34.423Z" transform="translate(0 -3.301)" fill="#f2f2f2"/>
  <rect id="Rectangle_45" data-name="Rectangle 45" width="76.933" height="35.844" transform="translate(9.115 73.96)" fill="#3f3d56"/>
  <circle id="Ellipse_18" data-name="Ellipse 18" cx="10.698" cy="10.698" r="10.698" transform="translate(58.688 45.858)" fill="#439133"/>
  <line id="Line_2" data-name="Line 2" y1="19.406" x2="0.088" transform="translate(69.289 56.498)" fill="none" stroke="#3f3d56" stroke-miterlimit="10" stroke-width="2"/>
  <circle id="Ellipse_19" data-name="Ellipse 19" cx="2.744" cy="2.744" r="2.744" transform="translate(66.632 53.753)" fill="#3f3d56"/>
  <path id="Path_262" data-name="Path 262" d="M356.858,355.835s-.354-8.434-8.4-7.49" transform="translate(-287.535 -287.378)" fill="#3f3d56"/>
  <circle id="Ellipse_20" data-name="Ellipse 20" cx="10.698" cy="10.698" r="10.698" transform="translate(13.872 24.38)" fill="#439133"/>
  <line id="Line_3" data-name="Line 3" y1="39.507" x2="0.616" transform="translate(23.964 35.066)" fill="none" stroke="#3f3d56" stroke-miterlimit="10" stroke-width="2"/>
  <circle id="Ellipse_21" data-name="Ellipse 21" cx="2.744" cy="2.744" r="2.744" transform="translate(21.836 32.322)" fill="#3f3d56"/>
  <path id="Path_263" data-name="Path 263" d="M100.359,228.4s-.261-8.437-8.312-7.582" transform="translate(-75.953 -182.154)" fill="#3f3d56"/>
  <path id="Path_264" data-name="Path 264" d="M98.6,341.356s2.017-16.185-8.163-17.128" transform="translate(-74.627 -267.538)" fill="none" stroke="#3f3d56" stroke-miterlimit="10" stroke-width="2"/>
  <circle id="Ellipse_22" data-name="Ellipse 22" cx="2.744" cy="2.744" r="2.744" transform="translate(13.069 53.946)" fill="#3f3d56"/>
  <circle id="Ellipse_23" data-name="Ellipse 23" cx="10.698" cy="10.698" r="10.698" transform="translate(36.878 0.629)" fill="#439133"/>
  <line id="Line_4" data-name="Line 4" y1="64.729" transform="translate(47.583 11.367)" fill="none" stroke="#3f3d56" stroke-miterlimit="10" stroke-width="2"/>
  <circle id="Ellipse_24" data-name="Ellipse 24" cx="2.744" cy="2.744" r="2.744" transform="translate(44.839 8.592)" fill="#3f3d56"/>
  <circle id="Ellipse_25" data-name="Ellipse 25" cx="2.744" cy="2.744" r="2.744" transform="translate(36.41 55.424)" fill="#3f3d56"/>
  <path id="Path_265" data-name="Path 265" d="M232.363,109.466s-.392-8.432-8.429-7.452" transform="translate(-184.78 -84.112)" fill="#3f3d56"/>
  <path id="Path_266" data-name="Path 266" d="M232.363,246.178s-.392-8.432-8.429-7.452" transform="translate(-184.78 -196.92)" fill="#3f3d56"/>
  <path id="Path_267" data-name="Path 267" d="M232.363,349.854s1.764-16.389-8.429-17.174" transform="translate(-184.78 -274.512)" fill="none" stroke="#3f3d56" stroke-miterlimit="10" stroke-width="2"/>
  <circle id="Ellipse_26" data-name="Ellipse 26" cx="2.744" cy="2.744" r="2.744" transform="translate(53.436 29.681)" fill="#3f3d56"/>
  <path id="Path_268" data-name="Path 268" d="M272.553,201.751s-1.764-15.515,8.429-16.3" transform="translate(-224.802 -153.026)" fill="none" stroke="#3f3d56" stroke-miterlimit="10" stroke-width="2"/>
  <path id="Path_269" data-name="Path 269" d="M384.847,113.693a3.847,3.847,0,1,1,3.847-3.847A3.847,3.847,0,0,1,384.847,113.693Zm0-7.344a3.5,3.5,0,1,0,3.5,3.5A3.5,3.5,0,0,0,384.847,106.35Z" transform="translate(-314.383 -87.466)" fill="#3f3d56"/>
  <path id="Path_270" data-name="Path 270" d="M38.847,7.693a3.847,3.847,0,1,1,3.847-3.847A3.847,3.847,0,0,1,38.847,7.693Zm0-7.344a3.5,3.5,0,1,0,3.5,3.5A3.5,3.5,0,0,0,38.847.35Z" transform="translate(-28.88)" fill="#3f3d56"/>
  <path id="Path_271" data-name="Path 271" d="M541.847,333.693a3.847,3.847,0,1,1,3.847-3.847A3.847,3.847,0,0,1,541.847,333.693Zm0-7.344a3.5,3.5,0,1,0,3.5,3.5A3.5,3.5,0,0,0,541.847,326.35Z" transform="translate(-443.932 -269)" fill="#3f3d56"/>
  <ellipse id="Ellipse_27" data-name="Ellipse 27" cx="2.5" cy="2" rx="2.5" ry="2" transform="translate(79.197 30)" fill="#3f3d56"/>
  <circle id="Ellipse_28" data-name="Ellipse 28" cx="3" cy="3" r="3" transform="translate(96.197 71)" fill="#3f3d56"/>
  <path id="Path_272" data-name="Path 272" d="M97.914,463.04V423H81.653a33.92,33.92,0,0,1-67.841,0H0v40.04Z" transform="translate(0 -349.04)" fill="#3f3d56"/>
  <path id="Path_273" data-name="Path 273" d="M112.92,456.92A33.92,33.92,0,0,0,146.841,423H79A33.92,33.92,0,0,0,112.92,456.92Z" transform="translate(-65.187 -349.04)" fill="#439133"/>
  <path id="Path_274" data-name="Path 274" d="M608.683,289.456a33.92,33.92,0,0,0,14.958-45.579L563.1,274.5A33.92,33.92,0,0,0,608.683,289.456Z" transform="translate(-464.647 -201.236)" fill="#3f3d56"/>
  <path id="Path_275" data-name="Path 275" d="M825.725,142.354c.113-.076.222-.158.327-.244a5.018,5.018,0,0,1-1.044,1.783h0c-.109.121-.226.233-.346.343,0-.028-.005-.055-.006-.083-.014-.268.005-.549.009-.824A3.521,3.521,0,0,0,825.725,142.354Z" transform="translate(-680.463 -117.263)" fill="url(#linear-gradient)"/>
  <path id="Path_276" data-name="Path 276" d="M796.233,65.715a3.086,3.086,0,1,0-5.689-1.014,4.955,4.955,0,0,0-2.818,4.714,4.961,4.961,0,1,0,9.118,2.707c0-.079,0-.158-.006-.236a4.96,4.96,0,0,0-.6-6.171Z" transform="translate(-649.331 -50.379)" fill="#2f2e41"/>
  <g id="Group_79-2" data-name="Group 79" transform="translate(137.591 13.352)" opacity="0.1">
    <path id="Path_277" data-name="Path 277" d="M807.409,76.564l.041-.021c-.01-.053-.017-.108-.024-.162,0,.011,0,.022-.005.034C807.415,76.465,807.413,76.514,807.409,76.564Z" transform="translate(-803.827 -76.378)"/>
    <path id="Path_278" data-name="Path 278" d="M797.606,105.386a4.935,4.935,0,0,1-.769,2.114c0,.078.006.157.006.236a4.96,4.96,0,0,1-9.9.4c-.011.134-.018.268-.018.4a4.961,4.961,0,1,0,9.922,0h0c0-.079,0-.158-.006-.236a4.947,4.947,0,0,0,.787-3.115C797.619,105.255,797.614,105.32,797.606,105.386Z" transform="translate(-786.921 -100.149)"/>
    <path id="Path_279" data-name="Path 279" d="M840.585,76.362a3.077,3.077,0,0,1-.407,1.18c.087.089.169.182.248.278a3.086,3.086,0,0,0,.159-1.458Z" transform="translate(-830.866 -76.362)"/>
  </g>
  <path id="Path_280" data-name="Path 280" d="M724.362,368.2a2.265,2.265,0,0,0,.225.812.9.9,0,0,0,.658.482,1.328,1.328,0,0,0,.726-.21,2.481,2.481,0,0,0,1.131-.941,2.609,2.609,0,0,0,.153-1.419l-.3-3.783c-.715-.02-1.433-.019-2.146.02s-.831.205-.733.9C724.275,365.424,724.18,366.82,724.362,368.2Z" transform="translate(-597.452 -299.632)" fill="#fbbebe"/>
  <path id="Path_281" data-name="Path 281" d="M833.516,385.174l1.7,2.747a.672.672,0,0,0,.37.348.579.579,0,0,0,.355-.062,4.432,4.432,0,0,0,1.417-1.176,2.623,2.623,0,0,0,.681-1.044,1.33,1.33,0,0,0-.34-1.252,4.127,4.127,0,0,0-.641-.458c-1.344-.906-1.951-2.629-3.277-3.56a.518.518,0,0,0-.269-.116.557.557,0,0,0-.276.093l-1.814.994c-.785.43-.536.48.06.943A10.025,10.025,0,0,1,833.516,385.174Z" transform="translate(-685.643 -314.054)" fill="#fbbebe"/>
  <path id="Path_282" data-name="Path 282" d="M726.938,379.174a1.048,1.048,0,0,0-.763-.035.841.841,0,0,0-.4.627c-.047.252-.042.514-.112.761a2.575,2.575,0,0,1-.742,1.049,1.081,1.081,0,0,1-.466.324c-.245.063-.506-.052-.755-.008a.822.822,0,0,0-.6.607,2.417,2.417,0,0,0-.029.891l.193,2.109a3.192,3.192,0,0,1,.008.775,8.214,8.214,0,0,1-.49,1.315,1.161,1.161,0,0,0,.233,1.295.937.937,0,0,0,.9.079,2.078,2.078,0,0,0,.741-.563c1.145-1.249,1.657-2.94,2.547-4.382a8.548,8.548,0,0,0,.609-1.045c.122-.28.2-.577.3-.866a8.7,8.7,0,0,1,.49-1.125c.106-.208.512-.707.427-.939C728.884,379.646,727.323,379.3,726.938,379.174Z" transform="translate(-596.337 -312.798)" fill="#2f2e41"/>
  <path id="Path_283" data-name="Path 283" d="M856.74,399.093a2.18,2.18,0,0,1-1.2,1.032,1.088,1.088,0,0,0-.41.212.634.634,0,0,0-.071.695,2.223,2.223,0,0,0,.456.581,7.517,7.517,0,0,1,1.952,3.934,2.427,2.427,0,0,0,.324,1.073,1.617,1.617,0,0,0,2.017.217,1.3,1.3,0,0,0,.5-.409,1.643,1.643,0,0,0,.2-.622,8.587,8.587,0,0,0,.195-1.651,18.759,18.759,0,0,0-.595-3.082c-.267-1.464-.133-3.04-.815-4.363a.974.974,0,0,0-.311-.391,1.093,1.093,0,0,0-.554-.124q-.924-.038-1.849-.016c-.173,0-.375.026-.464.173a.535.535,0,0,0,.069.5C856.57,397.6,857.188,398.2,856.74,399.093Z" transform="translate(-705.492 -326.902)" fill="#2f2e41"/>
  <path id="Path_284" data-name="Path 284" d="M707.266,258.046a.951.951,0,0,0-.223,1.2c.137.226.381.437.328.7s-.386.36-.657.4a53.845,53.845,0,0,0-7.026,1.776l-2.428.731a7.237,7.237,0,0,0-2.017.838,3.63,3.63,0,0,0-1.269,1.516,7.492,7.492,0,0,0-.472,1.982,24.221,24.221,0,0,1-1.937,7.238l5.889,1.931a8.661,8.661,0,0,0,1.764.444,6.571,6.571,0,0,0,1.719-.083c-.037-1.315-.059-2.67-.1-3.985a11.188,11.188,0,0,0-.081-1.243c-.088-.63-.284-1.243-.345-1.877a1.5,1.5,0,0,1,1.019-.158,4.8,4.8,0,0,0,2.3-.624c.714-.368,1.379-.827,2.089-1.2a11.777,11.777,0,0,0,3.434-2.035c-.46,1.754-1.548,3.283-1.758,5.085a10.591,10.591,0,0,0,1.253,5.284l2.317,5.377c.256.594.6,1.261,1.227,1.4a1.854,1.854,0,0,0,1.163-.23c2.133-1,3.839-2.876,6.115-3.477-.17-1.128-1.061-2.06-1.565-3.082a18.184,18.184,0,0,1-.848-2.752,3.657,3.657,0,0,0-1.628-2.287c-.407-.207-.955-.388-.993-.843a.954.954,0,0,1,.091-.423,5.519,5.519,0,0,1,1.386-2.017.613.613,0,0,0,.182-.228.688.688,0,0,0,.013-.271,3.191,3.191,0,0,1,.786-2.006,7.466,7.466,0,0,0,1.189-1.84,5.62,5.62,0,0,0-.416-3.682,3.719,3.719,0,0,0-.7-1.349,3.418,3.418,0,0,0-2.19-.839C712.321,257.135,709.307,256.461,707.266,258.046Z" transform="translate(-570.645 -212.09)" fill="#2f2e41"/>
  <g id="Group_80" data-name="Group 80" transform="translate(136.353 45.875)" opacity="0.1">
    <path id="Path_285" data-name="Path 285" d="M779.842,262.808a.493.493,0,0,0,.372-.336.36.36,0,0,0,.006-.1c-.037.027-.074.053-.111.081A.882.882,0,0,0,779.842,262.808Z" transform="translate(-779.842 -262.372)"/>
  </g>
  <path id="Path_286" data-name="Path 286" d="M798,146.511a1.932,1.932,0,0,1-.6,1.591c-.145.121-.313.212-.452.339a1.221,1.221,0,0,0,.023,1.726,1.2,1.2,0,0,0,.156.128,2.318,2.318,0,0,0,1.6.115,9.371,9.371,0,0,0,2.105-.549,3.494,3.494,0,0,0,1.66-1.359,2.042,2.042,0,0,1-.945-1.69c-.036-.674.149-1.438-.278-1.961a1.734,1.734,0,0,0-1.811-.327c-.314.087-.619.207-.934.292-.159.043-.686.044-.791.162C797.552,145.19,797.982,146.171,798,146.511Z" transform="translate(-657.321 -119.167)" fill="#fbbebe"/>
  <path id="Path_287" data-name="Path 287" d="M798,146.511a1.932,1.932,0,0,1-.6,1.591c-.145.121-.313.212-.452.339a1.221,1.221,0,0,0,.023,1.726,1.2,1.2,0,0,0,.156.128,2.318,2.318,0,0,0,1.6.115,9.371,9.371,0,0,0,2.105-.549,3.494,3.494,0,0,0,1.66-1.359,2.042,2.042,0,0,1-.945-1.69c-.036-.674.149-1.438-.278-1.961a1.734,1.734,0,0,0-1.811-.327c-.314.087-.619.207-.934.292-.159.043-.686.044-.791.162C797.552,145.19,797.982,146.171,798,146.511Z" transform="translate(-657.321 -119.167)" opacity="0.1" style="isolation: isolate"/>
  <circle id="Ellipse_29" data-name="Ellipse 29" cx="3.486" cy="3.486" r="3.486" transform="translate(138.998 20.335)" fill="#fbbebe"/>
  <path id="Path_288" data-name="Path 288" d="M748.2,282.221a2.384,2.384,0,0,1-.328.774,3.626,3.626,0,0,0-.416,2.379,2.511,2.511,0,0,0,1.465,1.852,1,1,0,0,0,1-.063,3.355,3.355,0,0,1-.463-2.2.73.73,0,0,1,.1-.408.256.256,0,0,1,.354-.075l.014.01a3.314,3.314,0,0,0,.272,1.4c.074.17.2.357.385.352.265-.007.337-.366.327-.632a7.031,7.031,0,0,0-.615-3.156,3.754,3.754,0,0,1-.518-1.062.629.629,0,0,0-.133-.372.474.474,0,0,0-.2-.091c-.3-.085-1.011-.349-1.258-.068C747.924,281.168,748.25,281.861,748.2,282.221Z" transform="translate(-616.726 -231.653)" fill="#fbbebe"/>
  <path id="Path_289" data-name="Path 289" d="M752.009,183.257c-.4-.045-.715.321-.934.658a12.736,12.736,0,0,0-1.735,4.114,8.893,8.893,0,0,1-.629,2.2,2.126,2.126,0,0,0-.205.448,4.439,4.439,0,0,0-.032.721,11.525,11.525,0,0,1-.381,1.251c-.052.255-.041.52-.087.776a7.8,7.8,0,0,1-.485,1.277c-.278.754-.276,1.581-.48,2.359a.814.814,0,0,1-.161.35,1.845,1.845,0,0,1-.542.287,1.173,1.173,0,0,0-.544.8,3.473,3.473,0,0,0-.018,1l.16,2.062c.165-.069.273-.256.411-.371a1.149,1.149,0,0,1,.945-.1l.47.085a2.1,2.1,0,0,1,1.311.577c.245-.383.1-.948.482-1.2.122-.083.274-.111.4-.183a.9.9,0,0,0,.41-.724,2.659,2.659,0,0,0-.118-.854,2.484,2.484,0,0,0,1.214-1.477,12.223,12.223,0,0,0,.561-2.278,58.355,58.355,0,0,0,1.093-9.263,4.447,4.447,0,0,0-.17-1.544C752.776,183.733,752.527,183.315,752.009,183.257Z" transform="translate(-615.356 -151.212)" fill="#d0cde1"/>
  <path id="Path_290" data-name="Path 290" d="M783.292,164.187a4.39,4.39,0,0,1-2.12,1.231,13.1,13.1,0,0,1-2.455.362,1.529,1.529,0,0,1-.759-.066.525.525,0,0,1-.317-.622.658.658,0,0,0,.092-.242c0-.212-.317-.23-.52-.167a5.247,5.247,0,0,0-3.248,2.5,7.545,7.545,0,0,0-.576,2.3,19.108,19.108,0,0,0-.192,6.228,20.174,20.174,0,0,1,.635,3.271c.014.624-.091,1.245-.086,1.868a.939.939,0,0,0,.165.616c.1.112.242.183.309.315.113.22-.038.523.11.721.183.244.564.069.815-.1a6.488,6.488,0,0,1,4.314-1.086c1.827.2,3.643,1.17,5.415.683a2.619,2.619,0,0,1-.235-.422,12.337,12.337,0,0,1,.5-8.881,11.041,11.041,0,0,0,1.224-2.845,5.415,5.415,0,0,0,.016-1.443,5.962,5.962,0,0,0-.818-2.648A3.275,3.275,0,0,0,783.292,164.187Z" transform="translate(-637.849 -135.479)" fill="#d0cde1"/>
  <path id="Path_291" data-name="Path 291" d="M782.626,289.213a3.174,3.174,0,0,0-.2,1.187,6.935,6.935,0,0,0,.058,1.159,1.844,1.844,0,0,0,.339.91.833.833,0,0,0,.87.31.914.914,0,0,0,.525-.584,5.33,5.33,0,0,0,.165-.8,13.381,13.381,0,0,0,.576-2.34.659.659,0,0,0-.044-.28,1.588,1.588,0,0,0-1.253-.647C783.207,288.2,782.79,288.831,782.626,289.213Z" transform="translate(-645.617 -237.748)" fill="#fbbebe"/>
  <path id="Path_292" data-name="Path 292" d="M793.351,181.02c-.069.693.6,1.216.867,1.86a3.13,3.13,0,0,1,.183.936,44.82,44.82,0,0,1-.1,6.665,9.429,9.429,0,0,1-2.471,6.3,2.643,2.643,0,0,1-1.345,1.109l-3.1,1.5a5.972,5.972,0,0,0-1.1.632,3.005,3.005,0,0,0-.91,1.185c-.6-.307-1.224-.582-1.825-.889-.141-.072-.3-.165-.322-.321-.033-.209.186-.357.337-.506a3.029,3.029,0,0,0,.521-1.057c.5-1.195,1.751-1.959,2.2-3.172a4.835,4.835,0,0,1,.535-1.383,3.43,3.43,0,0,1,.591-.521,10.059,10.059,0,0,0,1.309-1.34,2.27,2.27,0,0,0,.428-.627,3.137,3.137,0,0,0,.1-1.1,13.969,13.969,0,0,1,.906-3.5c.316-1.1.447-2.245.861-3.308A3.894,3.894,0,0,1,793.351,181.02Z" transform="translate(-646.282 -149.369)" opacity="0.1" style="isolation: isolate"/>
  <path id="Path_293" data-name="Path 293" d="M795.652,181.02c-.069.693.6,1.216.867,1.86a3.132,3.132,0,0,1,.183.936,44.82,44.82,0,0,1-.1,6.665,9.433,9.433,0,0,1-2.471,6.3,2.644,2.644,0,0,1-1.345,1.109l-3.1,1.5a5.978,5.978,0,0,0-1.1.632,3.007,3.007,0,0,0-.91,1.185c-.6-.307-1.224-.582-1.825-.889-.141-.072-.3-.165-.322-.321-.032-.209.186-.357.337-.506a3.032,3.032,0,0,0,.521-1.057c.5-1.195,1.751-1.959,2.2-3.172a4.835,4.835,0,0,1,.535-1.383,3.43,3.43,0,0,1,.591-.521,10.036,10.036,0,0,0,1.309-1.34,2.279,2.279,0,0,0,.428-.627,3.143,3.143,0,0,0,.1-1.1,13.958,13.958,0,0,1,.906-3.5c.316-1.1.447-2.245.861-3.308A3.893,3.893,0,0,1,795.652,181.02Z" transform="translate(-648.18 -149.369)" fill="#d0cde1"/>
  <path id="Path_294" data-name="Path 294" d="M810.191,105.244a4.939,4.939,0,0,0-3.1.641c.138.005.276.015.415.031a4.961,4.961,0,0,1,1.905,9.21,4.961,4.961,0,0,0,.775-9.882Z" transform="translate(-665.978 -86.812)" fill="#2f2e41"/>
  <path id="Path_295" data-name="Path 295" d="M803.276,113.912a2.268,2.268,0,0,1,.039,1.738,2.17,2.17,0,0,0-.081-.212c-.613-1.365-2.5-1.929-4.219-1.262a3.458,3.458,0,0,0-2.038,1.942,2.95,2.95,0,0,1,2.08-3.468C800.774,111.983,802.663,112.548,803.276,113.912Z" transform="translate(-657.537 -92.723)" fill="#2f2e41"/>
  <g id="Group_81" data-name="Group 81" transform="translate(141.118 11.208)" opacity="0.1">
    <path id="Path_296" data-name="Path 296" d="M811.727,110.311a3.094,3.094,0,0,0-4.631-3.746c.138.005.276.015.415.031A4.962,4.962,0,0,1,811.727,110.311Z" transform="translate(-807.096 -98.7)"/>
    <path id="Path_297" data-name="Path 297" d="M816.328,89.6a3.094,3.094,0,0,0-4.631-3.746c.138.005.276.015.415.031A4.962,4.962,0,0,1,816.328,89.6Z" transform="translate(-810.892 -81.615)"/>
    <path id="Path_298" data-name="Path 298" d="M825.111,66.687a1.867,1.867,0,0,0-2.795-2.261c.083,0,.167.009.25.019A2.994,2.994,0,0,1,825.111,66.687Z" transform="translate(-819.655 -64.104)"/>
    <path id="Path_299" data-name="Path 299" d="M825.357,126.665a4.965,4.965,0,0,1-3.843,5.241,5,5,0,0,1-1.148.925,4.96,4.96,0,0,0,4.991-6.167Z" transform="translate(-818.046 -115.726)"/>
  </g>
  <line id="Line_5" data-name="Line 5" x1="0.642" y1="19.395" transform="translate(132.357 34.539)" fill="none" stroke="#6c63ff" stroke-miterlimit="10" stroke-width="2"/>
  <circle id="Ellipse_30" data-name="Ellipse 30" cx="2.744" cy="2.744" r="2.744" transform="translate(129.612 31.795)" fill="#439133"/>
  <path id="Path_300" data-name="Path 300" d="M718.329,231.482s-.671-8.414-8.671-7.169" transform="translate(-585.577 -184.988)" fill="#439133"/>
</svg>
